<?xml version="1.0" encoding="UTF-8"?>
<svg width="64" height="64" viewBox="0 0 64 64" xmlns="http://www.w3.org/2000/svg">
  <defs>
    <linearGradient id="keyboardGlow" x1="0%" y1="0%" x2="100%" y2="100%">
      <stop offset="0%" style="stop-color:#00ff9f;stop-opacity:1" />
      <stop offset="100%" style="stop-color:#00ccff;stop-opacity:1" />
    </linearGradient>
    <filter id="neonEffect" x="-50%" y="-50%" width="200%" height="200%">
      <feGaussianBlur in="SourceGraphic" stdDeviation="1.5" result="blur" />
      <feColorMatrix in="blur" type="matrix" values="1 0 0 0 0  0 1 0 0 0  0 0 1 0 0  0 0 0 18 -7" result="glow" />
      <feBlend in="SourceGraphic" in2="glow" mode="normal" />
    </filter>
  </defs>
  
  <!-- 背景圆形 -->
  <circle cx="32" cy="32" r="30" fill="#1a1a1a" />
  
  <!-- 键盘 -->
  <g transform="translate(32,44) scale(0.12)">
    <rect x="-120" y="-30" width="240" height="60" rx="10" fill="none" stroke="url(#keyboardGlow)" stroke-width="8" />
    <!-- 键帽 -->
    <g fill="url(#keyboardGlow)" opacity="0.8">
      <rect x="-100" y="-20" width="20" height="20" rx="3" />
      <rect x="-70" y="-20" width="20" height="20" rx="3" />
      <rect x="-40" y="-20" width="20" height="20" rx="3" />
      <rect x="-10" y="-20" width="20" height="20" rx="3" />
      <rect x="20" y="-20" width="20" height="20" rx="3" />
      <rect x="50" y="-20" width="20" height="20" rx="3" />
      <rect x="80" y="-20" width="20" height="20" rx="3" />
    </g>
  </g>
  
  <!-- 人物形象 -->
  <g transform="translate(32,28) scale(0.12)">
    <!-- 头部 -->
    <circle cx="0" cy="0" r="80" fill="#2a2a2a" stroke="url(#keyboardGlow)" stroke-width="8" />
    
    <!-- 眼镜 -->
    <g fill="none" stroke="url(#keyboardGlow)" stroke-width="8" filter="url(#neonEffect)">
      <circle cx="-30" cy="0" r="25" />
      <circle cx="30" cy="0" r="25" />
      <line x1="-5" y1="0" x2="5" y2="0" />
      <line x1="-55" y1="0" x2="-65" y2="-5" />
      <line x1="55" y1="0" x2="65" y2="-5" />
    </g>
    
    <!-- 胡须 -->
    <path d="M-40,30 Q0,50 40,30" fill="none" stroke="url(#keyboardGlow)" stroke-width="6" opacity="0.8" />
    
    <!-- 手臂和手 -->
    <g stroke="url(#keyboardGlow)" stroke-width="8" fill="none">
      <path d="M-60,60 Q-90,120 -70,200" />
      <path d="M60,60 Q90,120 70,200" />
    </g>
  </g>
  
  <!-- 光效装饰 -->
  <g stroke="url(#keyboardGlow)" stroke-width="0.8" opacity="0.6">
    <circle cx="32" cy="32" r="27" fill="none" />
    <circle cx="32" cy="32" r="28" fill="none" />
  </g>
</svg>